<?xml version="1.0" encoding="UTF-8"?>
<svg version="1.1" xmlns="http://www.w3.org/2000/svg" width="2000" height="2000">
<path d="M0 0 C660 0 1320 0 2000 0 C2000 660 2000 1320 2000 2000 C1340 2000 680 2000 0 2000 C0 1340 0 680 0 0 Z " fill="#FEFEFE" transform="translate(0,0)"/>
<path d="M0 0 C4.09969168 0.56955827 6.34784347 2.99223712 9.27734375 5.70703125 C10.52248543 6.81893568 11.7699439 7.92825034 13.01953125 9.03515625 C13.97037598 9.88110352 13.97037598 9.88110352 14.94042969 10.74414062 C17.83984035 13.2634229 20.86132604 15.61230938 23.90234375 17.95703125 C29.0960658 21.98426826 34.15304744 26.14009793 39.15209961 30.40600586 C44.31786518 34.81407319 49.57128696 39.10995492 54.83984375 43.39453125 C60.62705237 48.11896545 66.40259713 52.85698321 72.16503906 57.61157227 C83.6954163 67.41030184 83.6954163 67.41030184 95.83984375 76.39453125 C96.23349804 79.33104241 96.23349804 79.33104241 96.26025295 83.2017231 C96.26925015 83.91700613 96.27824735 84.63228917 96.28751719 85.36924744 C96.31434974 87.80461743 96.31954775 90.23957397 96.32505798 92.67507935 C96.3398765 94.44511884 96.35597429 96.215148 96.37323534 97.98516536 C96.41741681 102.93134956 96.44232504 107.87748113 96.4642746 112.82380733 C96.49154158 118.26110845 96.53583357 123.69827788 96.57742977 129.1354847 C96.67339811 142.19323555 96.74199808 155.25107726 96.80823255 168.30900715 C96.84336229 175.18047669 96.8828784 182.05191947 96.92271243 188.92336309 C97.15785234 229.51961358 97.3471078 270.11603029 97.52401442 310.7125712 C97.57866372 323.24690437 97.63457246 335.78123148 97.69126701 348.31555557 C97.69740246 349.67246359 97.69740246 349.67246359 97.70366186 351.05678388 C97.72028512 354.73277478 97.73691381 358.40876565 97.75355044 362.08475648 C97.90820168 396.2591473 98.05976154 430.43355117 98.20975373 464.60796272 C98.34181638 494.69340532 98.47634099 524.77883592 98.61303711 554.86425781 C98.64810164 562.58218316 98.68316375 570.30010851 98.71820164 578.01803398 C98.72468066 579.44516405 98.72468066 579.44516405 98.73129058 580.90112503 C98.84683552 606.36044379 98.96041581 631.81977132 99.07341522 657.27910149 C99.08563378 660.03158834 99.09785288 662.78407519 99.11007287 665.53656203 C99.11817217 667.3609544 99.12627002 669.18534677 99.13436641 671.00973915 C99.18986651 683.51209678 99.24611428 696.01445084 99.30292755 708.51680257 C99.32652262 713.71499075 99.34998714 718.91317953 99.37342856 724.1113684 C99.39259939 728.36217253 99.41182811 732.61297637 99.43119989 736.86377959 C99.50832669 753.81002767 99.58170936 770.7562606 99.6344619 787.70260421 C99.65321326 793.7247445 99.67262934 799.74688273 99.69198457 805.76902111 C99.69896442 807.9588475 99.70575759 810.14867442 99.71254697 812.33850141 C99.76686333 829.56447395 99.87813752 846.78835349 100.07946044 864.01337469 C100.17049086 871.82664742 100.23730109 879.64005458 100.29599945 887.45363197 C100.34265058 893.37437535 100.42252145 899.29329626 100.53071365 905.21321899 C100.58660253 908.7082622 100.61005179 912.20292011 100.6234103 915.69836053 C100.63621303 917.27724835 100.66279466 918.85609737 100.70456879 920.43448439 C101.00414373 932.06228673 101.00414373 932.06228673 98.10612118 935.37833476 C96.04593465 936.69443922 94.13243448 937.56608387 91.83984375 938.39453125 C90.40523804 939.24712524 90.40523804 939.24712524 88.94165039 940.11694336 C88.05340576 940.6300708 87.16516113 941.14319824 86.25 941.671875 C85.23091553 942.26073486 84.21183105 942.84959473 83.16186523 943.45629883 C82.08622314 944.07529053 81.01058105 944.69428223 79.90234375 945.33203125 C78.76933838 945.98518311 77.63633301 946.63833496 76.46899414 947.3112793 C67.55918353 952.43921281 58.59391142 957.46492896 49.61450195 962.4699707 C43.73286023 965.75466941 37.8861692 969.08658021 32.08984375 972.51953125 C31.43854492 972.90383301 30.78724609 973.28813477 30.11621094 973.68408203 C27.12338189 975.45057039 24.13245615 977.21996165 21.14794922 979.00048828 C18.28128239 980.70626948 15.40517959 982.3951767 12.52734375 984.08203125 C11.62467773 984.62424316 10.72201172 985.16645508 9.79199219 985.72509766 C8.94540039 986.21800293 8.09880859 986.7109082 7.2265625 987.21875 C6.47592529 987.66307373 5.72528809 988.10739746 4.9519043 988.56518555 C2.438298 989.55220677 1.3230191 989.36441038 -1.16015625 988.39453125 C-2.752734 986.8019535 -2.28789884 985.1573454 -2.29076678 982.94862503 C-2.29628784 981.4960693 -2.29628784 981.4960693 -2.30192044 980.01416901 C-2.30089778 978.93546719 -2.29987511 977.85676538 -2.29882145 976.74537563 C-2.30166367 975.60625793 -2.30450589 974.46714022 -2.30743423 973.29350379 C-2.31437004 970.10340717 -2.31677822 966.91334244 -2.31736165 963.72323945 C-2.31908254 960.26338495 -2.32656324 956.80354237 -2.3333382 953.34369475 C-2.34442533 947.27056379 -2.35177868 941.19743702 -2.35673714 935.1242981 C-2.36412692 926.09366382 -2.37720623 917.06304417 -2.39148289 908.03241847 C-2.415332 892.84386609 -2.4345199 877.65531112 -2.45108223 862.46674919 C-2.46750414 847.42082298 -2.48597881 832.37490162 -2.5072155 817.3289814 C-2.50853311 816.39465241 -2.50985071 815.46032342 -2.51120825 814.49768143 C-2.51791002 809.75300008 -2.52464866 805.00831877 -2.53140151 800.26363749 C-2.57920757 766.62750456 -2.6223802 732.99136711 -2.6628418 699.35522461 C-2.70216852 666.67130199 -2.7435854 633.98738312 -2.7878418 601.3034668 C-2.78920433 600.29660464 -2.79056686 599.28974248 -2.79197067 598.25236935 C-2.80565565 588.14135737 -2.81938323 578.03034544 -2.83314202 567.91933356 C-2.86117111 547.32069882 -2.88891581 526.7220637 -2.91648865 506.12342834 C-2.91775685 505.1762661 -2.91902505 504.22910386 -2.92033167 503.25323973 C-3.0050359 439.96700965 -3.0831101 376.68077105 -3.16015625 313.39453125 C-4.93861477 319.54678804 -6.71673259 325.69914322 -8.49462891 331.8515625 C-9.09774312 333.9384985 -9.70093138 336.0254131 -10.30419922 338.11230469 C-13.35286564 348.65876929 -16.40132511 359.2051511 -19.40840149 369.76356506 C-20.36904981 373.12560993 -21.35444257 376.4794594 -22.34765625 379.83203125 C-24.77892308 388.07775632 -27.19378711 396.32828044 -29.59765625 404.58203125 C-29.79342255 405.25386444 -29.98918884 405.92569763 -30.19088745 406.6178894 C-32.68507037 415.1872802 -35.09862743 423.77381633 -37.41015625 432.39453125 C-38.10551127 434.94354155 -38.80538857 437.49120146 -39.51025391 440.03759766 C-39.94054575 441.59809256 -40.3647915 443.16026832 -40.78271484 444.72412109 C-41.35923566 446.85284897 -41.97195927 448.96732071 -42.59765625 451.08203125 C-43.09072266 452.82033203 -43.09072266 452.82033203 -43.59375 454.59375 C-45.66412618 458.29564456 -48.23454234 459.26449218 -52.16015625 460.39453125 C-55.26083179 460.80476736 -58.31963057 460.82535803 -61.44433594 460.81445312 C-62.34762131 460.82292267 -63.25090668 460.83139221 -64.18156433 460.84011841 C-67.14853216 460.86340011 -70.11497925 460.86451319 -73.08203125 460.86328125 C-75.14992479 460.87038454 -77.21781636 460.87808379 -79.28570557 460.88635254 C-83.60963432 460.89977436 -87.9333805 460.9013748 -92.25732422 460.89550781 C-97.80501687 460.88959223 -103.35184027 460.92029086 -108.89936447 460.96062469 C-113.16468039 460.98642739 -117.42978433 460.98938629 -121.69516754 460.98573303 C-123.74136808 460.98742905 -125.78757792 460.99711758 -127.83370209 461.01487732 C-130.68758747 461.03693655 -133.53967711 461.02743451 -136.39355469 461.00976562 C-137.24139023 461.02302887 -138.08922577 461.03629211 -138.9627533 461.04995728 C-141.31585693 461.01599121 -141.31585693 461.01599121 -145.16015625 460.39453125 C-147.1320343 458.04354858 -147.1320343 458.04354858 -148.16015625 455.39453125 C-148.56161865 454.40469238 -148.96308105 453.41485352 -149.37670898 452.39501953 C-149.77833252 451.26306152 -150.17995605 450.13110352 -150.59375 448.96484375 C-150.82368652 448.32238205 -151.05362305 447.67992035 -151.29052734 447.01799011 C-151.79600635 445.60393425 -152.29906539 444.18901158 -152.80001831 442.77334595 C-154.21145127 438.78518517 -155.64074006 434.80340224 -157.06640625 430.8203125 C-157.38024765 429.94177109 -157.69408905 429.06322968 -158.0174408 428.1580658 C-162.91544784 414.46016795 -167.91850948 400.80010408 -172.90060425 387.13262939 C-174.15323094 383.6954612 -175.4048019 380.25790996 -176.65625 376.8203125 C-177.02153809 375.81912888 -177.38682617 374.81794525 -177.76318359 373.78642273 C-179.97801663 367.70089019 -182.15220863 361.60189935 -184.30458069 355.49406433 C-184.58032692 354.71215272 -184.85607316 353.93024112 -185.14017534 353.12463522 C-185.81370416 351.21467173 -186.48695852 349.30461146 -187.16015625 347.39453125 C-187.75896216 427.02324068 -188.25587353 506.65213153 -188.644732 586.28214711 C-188.66535272 590.50054719 -188.6860666 594.7189468 -188.70678073 598.93734642 C-188.8815877 634.54104179 -189.05389081 670.14474958 -189.22265625 705.74847412 C-189.22781392 706.83649598 -189.23297158 707.92451783 -189.23828554 709.04551004 C-189.24344289 710.1335394 -189.24860024 711.22156875 -189.25391388 712.3425687 C-189.26432765 714.53949567 -189.27474177 716.73642264 -189.28515625 718.93334961 C-189.29030211 720.01898306 -189.29544798 721.10461651 -189.30074978 722.22314795 C-189.38806288 740.63158421 -189.47755884 759.04000918 -189.56867218 777.44842702 C-189.61887255 787.60583637 -189.66813685 797.76324809 -189.71459961 807.92067528 C-189.83001304 833.07434777 -189.96661324 858.2277854 -190.13956451 883.38113207 C-190.16099339 886.51703814 -190.18192754 889.65294729 -190.20281982 892.78885698 C-190.28461565 904.95550719 -190.37511269 917.12203453 -190.48307657 929.28848294 C-190.5302534 934.60634663 -190.57443085 939.92418818 -190.61045837 945.24214017 C-190.64416322 950.18176163 -190.68729083 955.121209 -190.73790932 960.06068526 C-190.75496346 961.88082972 -190.76861723 963.7010095 -190.77872276 965.5212058 C-190.79308419 968.00468397 -190.81956509 970.48773879 -190.84924316 972.9710741 C-190.85061893 973.70126576 -190.8519947 974.43145742 -190.85341215 975.18377609 C-190.93186812 980.16624312 -190.93186812 980.16624312 -193.16015625 982.39453125 C-198.44377404 982.210219 -201.98000798 979.86147873 -206.16015625 976.89453125 C-207.50581566 975.96904109 -208.85218416 975.04458121 -210.19921875 974.12109375 C-211.2051709 973.4254834 -211.2051709 973.4254834 -212.23144531 972.71582031 C-214.96384412 970.84395419 -217.74497282 969.05387078 -220.53515625 967.26953125 C-221.35862549 966.74214355 -221.35862549 966.74214355 -222.19873047 966.20410156 C-224.18490818 964.93273106 -226.17250504 963.6635969 -228.16015625 962.39453125 C-252.79580307 946.65558008 -252.79580307 946.65558008 -264.09765625 939.33203125 C-264.87061035 938.8328418 -265.64356445 938.33365234 -266.43994141 937.81933594 C-267.88213926 936.8825183 -269.31610584 935.93283283 -270.73917496 934.96720546 C-273.14505112 933.35583359 -273.14505112 933.35583359 -275.74082744 932.01322943 C-282.58856326 928.03548078 -282.58856326 928.03548078 -284.08342767 923.74397075 C-284.44121077 920.42417323 -284.47219181 917.23227918 -284.40066528 913.8936615 C-284.41329609 912.62573761 -284.4259269 911.35781372 -284.43894047 910.0514679 C-284.47266745 906.52330277 -284.44401689 902.99796312 -284.40536888 899.46994989 C-284.37431708 895.62727442 -284.40136207 891.7849362 -284.42104244 887.94224644 C-284.44762306 881.18699466 -284.43695705 874.432587 -284.40236092 867.67738342 C-284.35087391 857.57242212 -284.35816494 847.4680841 -284.37710602 837.3630399 C-284.40752659 820.22781101 -284.39088718 803.09291938 -284.34646606 785.95773315 C-284.30218942 768.87822967 -284.27241804 751.79883061 -284.2651062 734.7192688 C-284.2646369 733.65398004 -284.2641676 732.58869127 -284.26368407 731.49112103 C-284.26092658 724.97319648 -284.25875483 718.45527182 -284.25670488 711.93734701 C-284.2533886 701.91062859 -284.24873311 691.88391075 -284.24385071 681.85719299 C-284.24332878 680.73684973 -284.24280686 679.61650647 -284.24226912 678.46221342 C-284.23446982 662.22781286 -284.21635905 645.99344728 -284.19254886 629.75906294 C-284.10037806 565.65734376 -284.27335628 501.55947545 -284.60818568 437.4588021 C-284.71311554 417.35259131 -284.80192373 397.24638042 -284.87585449 377.14002991 C-284.88070696 375.82583914 -284.88555942 374.51164837 -284.89055893 373.15763364 C-284.93904219 359.9686828 -284.9853754 346.77972572 -285.02917831 333.59075852 C-285.05097762 327.05913027 -285.073466 320.52750457 -285.09637451 313.99588013 C-285.100879 312.70782664 -285.10538349 311.41977316 -285.11002448 310.09268775 C-285.18424129 289.30092008 -285.31014021 268.50975641 -285.45381191 247.71836646 C-285.59759179 226.72211449 -285.68211135 205.72625483 -285.70804816 184.72952211 C-285.72541508 172.16823827 -285.78855989 159.60906878 -285.91585155 147.04840797 C-285.99687566 138.6227203 -286.01977093 130.19816801 -285.99557863 121.772129 C-285.98345324 116.95806043 -285.99683603 112.14775789 -286.08092141 107.33432662 C-286.5811148 77.2138027 -286.5811148 77.2138027 -280.74313164 70.63801765 C-277.52019573 67.87051005 -274.13975767 66.05194253 -270.24531734 64.40225327 C-266.57664607 62.62924838 -263.62148263 59.95636668 -260.53515625 57.33203125 C-259.29803887 56.33028031 -258.05875457 55.33119376 -256.81640625 54.3359375 C-256.21054687 53.84754395 -255.6046875 53.35915039 -254.98046875 52.85595703 C-247.08640833 46.51826314 -239.081669 40.32067657 -231.04980469 34.15917969 C-220.74311642 26.2438922 -210.57595162 18.15251628 -200.4375 10.0234375 C-199.87554932 9.57726074 -199.31359863 9.13108398 -198.73461914 8.67138672 C-197.29954224 7.50757029 -195.91046464 6.28760856 -194.52734375 5.0625 C-191.83633382 3.16635934 -190.58553189 2.95122524 -187.34765625 3.14453125 C-186.55746094 3.180625 -185.76726562 3.21671875 -184.953125 3.25390625 C-184.06560547 3.32351563 -184.06560547 3.32351563 -183.16015625 3.39453125 C-180.37265788 8.44327462 -178.85089243 13.49527827 -177.34765625 19.01953125 C-176.82021927 20.91309755 -176.29154406 22.80631933 -175.76171875 24.69921875 C-175.49520508 25.6540918 -175.22869141 26.60896484 -174.95410156 27.59277344 C-173.76383154 31.79312362 -172.49457874 35.96832912 -171.22265625 40.14453125 C-168.5973218 48.79131477 -166.15250934 57.48367997 -163.78344727 66.20410156 C-162.09748441 72.32954767 -160.19228001 78.3441157 -158.15124512 84.36030579 C-155.65693739 91.78152264 -153.50722419 99.30001097 -151.33963013 106.82177734 C-146.48897064 123.64117428 -141.44982476 140.396385 -136.25756836 157.11328125 C-133.36284936 166.4380161 -130.55001601 175.782207 -127.81466675 185.15490723 C-126.64393361 189.16095764 -125.46437228 193.16440865 -124.28515625 197.16796875 C-124.03572266 198.01482239 -123.78628906 198.86167603 -123.52929688 199.73419189 C-117.39615821 220.54832496 -111.18570019 241.33759167 -104.88510132 262.10165405 C-104.14394105 264.54533923 -103.40419934 266.98945066 -102.66455078 269.43359375 C-101.5996327 272.95139519 -100.52578271 276.46636469 -99.44873047 279.98046875 C-98.89279204 281.8059556 -98.33696204 283.63147547 -97.78125 285.45703125 C-97.51844742 286.30869873 -97.25564484 287.16036621 -96.98487854 288.0378418 C-96.74551071 288.82715088 -96.50614288 289.61645996 -96.25952148 290.4296875 C-96.04674057 291.12457275 -95.83395966 291.81945801 -95.61473083 292.53540039 C-95.16015625 294.39453125 -95.16015625 294.39453125 -95.16015625 297.39453125 C-94.50015625 297.39453125 -93.84015625 297.39453125 -93.16015625 297.39453125 C-93.05493652 296.79084717 -92.9497168 296.18716309 -92.84130859 295.56518555 C-91.66440564 289.22298627 -89.91762215 283.28669438 -87.78515625 277.20703125 C-85.34051665 270.06178641 -83.17631239 262.93643548 -81.3046875 255.6171875 C-79.84372074 250.07591994 -78.10961274 244.61625701 -76.41015625 239.14453125 C-73.59473003 230.07960752 -70.84022131 221.00041381 -68.16015625 211.89453125 C-63.14771407 194.89544065 -57.95720944 177.95498015 -52.53515625 161.08203125 C-50.04377544 153.31544055 -47.71955083 145.51577936 -45.50610352 137.66577148 C-43.38372109 130.14211221 -41.19007923 122.64071066 -38.97265625 115.14453125 C-38.63951416 114.01378174 -38.30637207 112.88303223 -37.96313477 111.71801758 C-37.64272217 110.63673584 -37.32230957 109.5554541 -36.9921875 108.44140625 C-36.57030151 107.01586426 -36.57030151 107.01586426 -36.13989258 105.56152344 C-35.36959066 103.07152682 -34.56395029 100.60422268 -33.73120117 98.13500977 C-32.10616947 93.28840624 -30.63742265 88.40253915 -29.19140625 83.5 C-28.61965722 81.57176895 -28.04787867 79.64354665 -27.47607422 77.71533203 C-27.17973083 76.71407288 -26.88338745 75.71281372 -26.57806396 74.68121338 C-21.9973241 59.21501031 -17.40478071 43.75157193 -12.72875977 28.31387329 C-12.27174028 26.80211766 -11.81677385 25.28973961 -11.36401367 23.77670288 C-4.48966287 0.81999268 -4.48966287 0.81999268 0 0 Z " fill="#254183" transform="translate(1088.16015625,374.60546875)"/>
<path d="M0 0 C6.26602495 0.23031017 9.77149245 2.47348331 14.6875 6.1875 C16.18558569 7.2820884 17.68431114 8.37580162 19.18359375 9.46875 C19.96589355 10.04496094 20.74819336 10.62117188 21.55419922 11.21484375 C25.74065762 14.27048198 29.99779271 17.22441431 34.25 20.1875 C35.94926036 21.3762426 37.64848014 22.56504322 39.34765625 23.75390625 C43.12003054 26.38871313 46.90085597 29.01075013 50.6875 31.625 C55.58671063 35.00808662 60.45335803 38.43481259 65.3125 41.875 C70.84658793 45.7924229 76.40496346 49.6701425 82 53.5 C88.15368801 57.71351971 94.26080102 61.98853894 100.34790039 66.29760742 C108.41315678 72.00593591 116.51181872 77.66634961 124.60961914 83.32836914 C130.25617918 87.27709721 135.90043852 91.22910977 141.54296875 95.18359375 C150.6406034 101.557981 159.75065447 107.91389865 168.875 114.25 C175.64460652 118.95167363 182.38898958 123.68285198 189.08105469 128.49414062 C193.88356691 131.93810434 198.7514363 135.28267905 203.62768555 138.62109375 C211.60537918 144.08825797 219.51811906 149.64775562 227.43554688 155.20166016 C231.62173121 158.13724982 235.81097677 161.06846351 240 164 C244.96564538 167.47541954 249.93095426 170.95131434 254.89453125 174.4296875 C256.53380743 175.57819172 258.17313051 176.72662898 259.8125 177.875 C260.62541504 178.44444336 261.43833008 179.01388672 262.27587891 179.60058594 C268.79809867 184.16601246 275.33587366 188.7088363 281.875 193.25 C289.44122372 198.50514349 296.97539673 203.79937082 304.453125 209.1796875 C306.27962602 210.48513148 308.13199799 211.75466532 310 213 C310.29131026 216.13451238 310.38828737 219.07098902 310.35644531 222.20727539 C310.35848969 223.16181107 310.36053406 224.11634674 310.36264038 225.09980774 C310.36565709 228.26594988 310.34714577 231.43157572 310.328125 234.59765625 C310.32506908 236.78958507 310.32319169 238.98151583 310.32244873 241.17344666 C310.3178402 245.77106129 310.30339223 250.36850131 310.28125 254.96606445 C310.25295058 260.8736194 310.24203753 266.78103671 310.2375679 272.68865299 C310.23342068 277.21550385 310.22360934 281.74232658 310.21169281 286.26916313 C310.20597653 288.44817312 310.20122235 290.62718585 310.19742584 292.80620003 C310.19058744 295.84488864 310.17696708 298.8834658 310.16113281 301.92211914 C310.16001495 302.83175415 310.15889709 303.74138916 310.15774536 304.67858887 C310.11468555 310.88531445 310.11468555 310.88531445 309 312 C307.52105305 312.09868501 306.03741086 312.12798862 304.55517578 312.12939453 C303.59691391 312.1324913 302.63865204 312.13558807 301.65135193 312.13877869 C300.59335892 312.13680984 299.53536591 312.134841 298.4453125 312.1328125 C296.78853233 312.13499535 296.78853233 312.13499535 295.09828186 312.13722229 C291.44048806 312.1394926 287.78278475 312.1331365 284.125 312.125 C282.88279694 312.12311676 281.64059387 312.12123352 280.36074829 312.11929321 C262.75732623 312.08805766 245.15306027 311.99855478 227.55145264 311.73553467 C225.31116019 311.70354501 223.07079335 311.67639445 220.8303833 311.65411377 C217.71331662 311.62123516 214.59716421 311.56927915 211.48046875 311.51171875 C210.558069 311.50531876 209.63566925 311.49891876 208.68531799 311.49232483 C207.42219032 311.4626487 207.42219032 311.4626487 206.13354492 311.43237305 C205.40310471 311.42126999 204.67266449 311.41016693 203.92008972 311.39872742 C201.41375702 310.8782603 200.52496806 310.03287053 199 308 C198.60824446 305.24574919 198.39404012 302.70285001 198.3125 299.9375 C198.27906494 299.15197754 198.24562988 298.36645508 198.21118164 297.55712891 C197.88572177 289.04106979 197.90935792 280.52035597 198 272 C197.2678125 271.73703125 196.535625 271.4740625 195.78125 271.203125 C192.96551131 269.98508074 190.92949097 268.61260974 188.5 266.75 C183.3559581 262.9327943 178.09111216 259.34802179 172.75 255.8125 C162.3844285 248.94397704 152.08744192 241.97769539 141.80371094 234.98754883 C130.91384477 227.59124361 119.96112723 220.29017992 109 213 C109.00222061 213.54407501 109.00444122 214.08815002 109.00672913 214.64871216 C109.11001049 241.31185549 109.06407005 267.96570528 108.5625 294.625 C108.5330278 296.24852386 108.5330278 296.24852386 108.50296021 297.90484619 C108.47357864 299.49132965 108.47357864 299.49132965 108.44360352 301.10986328 C108.42668961 302.0242215 108.4097757 302.93857971 108.39234924 303.88064575 C108.17442962 314.01984102 107.86632001 324.15241002 107.48022461 334.28662109 C107.41082294 336.13310493 107.41082294 336.13310493 107.34001923 338.01689148 C107.22737379 341.0112879 107.11402403 344.00565581 107 347 C107.58723311 346.99907821 108.17446623 346.99815641 108.77949429 346.99720669 C232.54444953 346.8062326 232.54444953 346.8062326 275.96467972 347.28914261 C278.24978529 347.31249781 280.53486986 347.33015521 282.82003784 347.34616089 C286.94808162 347.37584135 291.0753872 347.42988705 295.203125 347.48828125 C296.38127274 347.49467621 297.55942047 347.50107117 298.77326965 347.50765991 C299.8293895 347.52744904 300.88550934 347.54723816 301.97363281 347.56762695 C302.88075012 347.57873001 303.78786743 347.58983307 304.72247314 347.60127258 C307 348 307 348 308.78712463 349.07603455 C310.62091229 351.98494358 310.43925574 354.88146328 310.43237305 358.21582031 C310.44253637 358.96197129 310.4526997 359.70812227 310.46317101 360.47688389 C310.49374656 363.01070227 310.50263875 365.54414445 310.51171875 368.078125 C310.52914569 369.9256044 310.54777244 371.7730728 310.56748962 373.62052917 C310.61752368 378.7467008 310.64728301 383.87280509 310.67157745 388.99915695 C310.68748505 392.24694744 310.70691137 395.49469805 310.72747803 398.74246216 C310.78683977 408.20730676 310.84104037 417.67214088 310.878479 427.13710022 C310.94142216 442.76923852 311.05125335 458.40007845 311.20399916 474.03159976 C311.34656681 488.68019972 311.45335105 503.32876341 311.53067303 517.97785378 C311.57696349 526.57312105 311.6385083 535.16773089 311.73690796 543.76257324 C311.82153529 551.17021519 311.87479407 558.57727859 311.88857025 565.98540431 C311.8966835 569.81654573 311.91985957 573.64611808 311.98194695 577.4767971 C312.04947791 581.67209759 312.04682886 585.86446964 312.03759766 590.06030273 C312.06838756 591.29222477 312.09917746 592.5241468 312.13090038 593.79339981 C312.03183174 601.91220535 312.03183174 601.91220535 309.05373764 605.05182076 C306.76039704 606.60539688 304.50542502 607.82677487 302 609 C300.78823213 609.7129277 299.58214411 610.43577754 298.38671875 611.17578125 C297.15481345 611.89003847 295.92167362 612.60216944 294.6875 613.3125 C287.58007412 617.44715507 280.54611225 621.69484705 273.52728271 625.97799683 C263.09911406 632.34129621 252.61774311 638.59974615 242.0625 644.75 C232.9658996 650.0505594 223.95200612 655.45753347 215.02954102 661.04785156 C206.98384952 666.06427537 198.7974001 670.83192675 190.60546875 675.60351562 C182.83671333 680.13126852 175.1204195 684.72518019 167.5 689.5 C158.64024348 695.05136643 149.63866241 700.34191313 140.60546875 705.60351562 C132.83670724 710.13127208 125.120553 714.72538729 117.5 719.5 C109.40099995 724.57192416 101.19297228 729.43914973 92.9375 734.25 C81.97732539 740.63820988 71.09706622 747.14413806 60.26635742 753.74926758 C59.11508497 754.45135654 57.96379923 755.1534237 56.8125 755.85546875 C56.24731155 756.20017715 55.68212311 756.54488556 55.09980774 756.90003967 C47.97133303 761.24300215 40.80500536 765.52317115 33.6328125 769.79345703 C29.06124529 772.52378102 24.52163209 775.28038119 20.0625 778.19140625 C19.32418945 778.67037354 18.58587891 779.14934082 17.82519531 779.64282227 C16.49286257 780.51416788 15.16844823 781.39781317 13.85449219 782.29663086 C11.14172603 784.07009984 9.48931248 785.02186871 6.203125 784.875 C4 784 4 784 2 782 C1.748151 780.06984198 1.748151 780.06984198 1.74552441 777.65770912 C1.73969221 776.74006078 1.73386002 775.82241245 1.72785109 774.87695658 C1.73163042 773.86219134 1.73540974 772.8474261 1.73930359 771.8019104 C1.73547804 770.72904954 1.73165249 769.65618869 1.72771102 768.55081689 C1.71733716 764.93177826 1.72138149 761.31289699 1.7253418 757.69384766 C1.72099773 755.10894116 1.71581561 752.52403596 1.70985413 749.93913269 C1.69708032 743.63208849 1.6953168 737.32508681 1.69765439 731.01803185 C1.6994349 725.892727 1.69769366 720.7674351 1.69342995 715.64213181 C1.69283476 714.91363767 1.69223957 714.18514354 1.69162634 713.43457382 C1.69041463 711.95478881 1.6892005 710.4750038 1.68798397 708.9952188 C1.67709788 695.10557239 1.67927584 681.21595024 1.68536881 667.32630245 C1.69053764 654.61267699 1.67928536 641.89912816 1.66027059 629.18551786 C1.64090942 616.14056481 1.63263325 603.09564804 1.63639385 590.05068052 C1.63830868 582.72320051 1.63579109 575.39578572 1.62167931 568.06831741 C1.60854534 561.17863392 1.61100216 554.28910654 1.62409019 547.3994236 C1.62646547 544.86616147 1.62368751 542.33288866 1.61546707 539.79963875 C1.60507831 536.35026378 1.61303714 532.90141246 1.6257782 529.45205688 C1.61840391 528.44175309 1.61102963 527.43144929 1.60343188 526.39053023 C1.61063842 525.4676664 1.61784497 524.54480256 1.62526989 523.59397316 C1.62518737 522.39948034 1.62518737 522.39948034 1.62510318 521.18085635 C2.09733115 518.43380356 3.13448526 517.04075193 5 515 C6.92529392 514.45536995 6.92529392 514.45536995 9.14369202 514.39163208 C9.98634109 514.35800064 10.82899017 514.3243692 11.69717407 514.28971863 C12.61832001 514.27290543 13.53946594 514.25609222 14.48852539 514.23876953 C15.46110794 514.20571213 16.43369049 514.17265472 17.43574524 514.13859558 C20.65611764 514.03419555 23.87647966 513.95800775 27.09765625 513.8828125 C29.33064341 513.81788617 31.5635895 513.75153257 33.79649353 513.68380737 C38.47777436 513.54595469 43.15915936 513.42130547 47.84106445 513.30664062 C53.85342188 513.15892011 59.86465501 512.98494604 65.87603092 512.80194283 C70.48675839 512.66336575 75.09772967 512.53540773 79.7088604 512.41103745 C81.92619324 512.35055954 84.14345725 512.28750297 86.36064339 512.22186661 C89.45389255 512.13253298 92.54717079 512.05670154 95.64086914 511.98486328 C96.56403931 511.95590469 97.48720947 511.92694611 98.43835449 511.89710999 C99.69809837 511.87204124 99.69809837 511.87204124 100.98329163 511.84646606 C101.71498597 511.82769472 102.44668032 511.80892338 103.20054722 511.78958321 C105 512 105 512 107 514 C107.21730326 516.55765342 107.31138209 519.01037362 107.31884766 521.57080078 C107.32889328 522.35137848 107.3389389 523.13195618 107.34928894 523.93618774 C107.38023993 526.522555 107.39718892 529.1088182 107.4140625 531.6953125 C107.43276459 533.486083 107.45233727 535.2768446 107.4727478 537.06759644 C107.52417644 541.78577437 107.56374456 546.50398092 107.60089111 551.22229004 C107.64086366 556.03498472 107.6919867 560.84755931 107.7421875 565.66015625 C107.83907377 575.10668661 107.92343774 584.5532846 108 594 C111.80507945 591.94213014 115.60961562 589.8832578 119.4140625 587.82421875 C120.48019775 587.24764526 121.54633301 586.67107178 122.64477539 586.07702637 C131.09228809 581.50411909 139.49990777 576.86362954 147.88623047 572.1796875 C149.97623505 571.01326314 152.06782398 569.84974321 154.16015625 568.6875 C155.2109436 568.10379639 155.2109436 568.10379639 156.28295898 567.50830078 C157.71826963 566.71168304 159.15397905 565.91578335 160.59008789 565.12060547 C164.7799549 562.79837971 168.96048452 560.46066464 173.13090515 558.10365295 C175.57943945 556.72107108 178.03103724 555.34397288 180.48294067 553.96737671 C181.69435616 553.28545917 182.90440248 552.60110308 184.11300659 551.91421509 C185.81787825 550.94564339 187.52799862 549.98632853 189.23828125 549.02734375 C190.22868408 548.46781006 191.21908691 547.90827637 192.23950195 547.33178711 C194.89410606 546.05108795 197.12105599 545.51551204 200 545 C199.99777939 544.24927719 199.99555878 543.49855438 199.99327087 542.7250824 C199.97295991 535.53605345 199.95787266 528.34703903 199.94818783 521.15798855 C199.94304092 517.46493206 199.93609903 513.77189991 199.92456055 510.07885742 C199.91343183 506.49317765 199.90766216 502.90752078 199.90512276 499.32182503 C199.90246379 497.33575304 199.8947042 495.34968985 199.88670349 493.3636322 C199.88600669 481.55898761 200.42601156 469.78870521 201 458 C199.03687363 458.00333092 199.03687363 458.00333092 197.03408813 458.00672913 C180.23106659 458.03428977 163.42804035 458.05195636 146.625 458.0625 C145.61660513 458.06315145 145.61660513 458.06315145 144.58783865 458.06381607 C107.57675804 458.08707927 70.57091373 458.00404097 33.5625 457.5 C32.68382515 457.48804218 31.8051503 457.47608437 30.89984894 457.46376419 C20.5996842 457.32243721 10.29974819 457.16910572 0 457 C-1.69903265 454.03311247 -2.24984203 451.91303693 -2.24888897 448.5049305 C-2.25348759 447.60306666 -2.25808621 446.70120283 -2.26282418 445.77200979 C-2.25768079 444.78410233 -2.25253741 443.79619488 -2.24723816 442.77835083 C-2.24965417 441.72434572 -2.25207018 440.67034061 -2.2545594 439.58439595 C-2.26022147 436.03162499 -2.25151601 432.47903257 -2.24291992 428.92626953 C-2.24396951 426.3743348 -2.24588343 423.82240031 -2.24859524 421.2704668 C-2.25291003 415.00979924 -2.24784796 408.74919703 -2.23868127 402.48853655 C-2.22829352 395.08374889 -2.22902906 387.67897376 -2.23006731 380.2741804 C-2.23171916 365.17602011 -2.21952137 350.07789072 -2.20283461 334.97974104 C-2.19020933 323.46823497 -2.18187476 311.95673247 -2.17623901 300.44522095 C-2.13731759 223.23034347 -2.0366709 146.01562004 -1.57784319 68.80192089 C-1.56242359 66.17448073 -1.54753749 63.54703807 -1.5328331 60.91959381 C-1.47818632 51.17529118 -1.41818679 41.43105569 -1.34724808 31.68685722 C-1.32655425 28.83894141 -1.30781036 25.99102415 -1.29087448 23.14308357 C-1.26814627 19.36641311 -1.23736277 15.58983608 -1.20532227 11.81323242 C-1.19956775 10.71325487 -1.19381323 9.61327732 -1.18788433 8.47996712 C-1.17809457 7.49582769 -1.16830481 6.51168827 -1.15821838 5.49772644 C-1.15176583 4.64596927 -1.14531328 3.79421209 -1.1386652 2.9166441 C-1 1 -1 1 0 0 Z " fill="#000000" transform="translate(1251,492)"/>
<path d="M0 0 C1.66687198 1.66687198 1.12578945 3.66514229 1.12649983 5.95656723 C1.12925958 7.03909864 1.13201932 8.12163005 1.13486269 9.23696545 C1.13280737 10.4434432 1.13075205 11.64992096 1.12863445 12.89295864 C1.13038749 14.16654705 1.13214053 15.44013546 1.13394669 16.75231746 C1.13870871 20.31956152 1.13716477 23.88678028 1.13466892 27.45402565 C1.13304476 31.32274075 1.13716918 35.19145022 1.14057809 39.06016356 C1.14574798 45.85122736 1.14714656 52.64228403 1.14612198 59.43334961 C1.14460213 69.5316355 1.14874748 79.62991345 1.1539966 89.7281978 C1.16368743 108.80941405 1.16648149 127.89062762 1.16705366 146.97184604 C1.16751249 161.70197561 1.16956707 176.43210412 1.17275429 191.16223335 C1.17365177 195.39602091 1.17454159 199.62980846 1.17542917 203.86359602 C1.17576074 205.44220807 1.17576074 205.44220807 1.17609901 207.05271128 C1.18225657 236.67070206 1.18619923 266.28869247 1.18575573 295.90668392 C1.18574015 297.0242441 1.18572457 298.14180429 1.18570852 299.29322993 C1.18562541 304.95802134 1.18552637 310.62281274 1.18542381 316.28760415 C1.1853939 317.97530181 1.1853939 317.97530181 1.18536337 319.69709437 C1.18532294 321.97238632 1.18528114 324.24767826 1.18523798 326.52297021 C1.18462501 361.93548359 1.19213448 397.3479874 1.20581055 432.76049805 C1.2211541 472.50754813 1.22977782 512.25459192 1.22884732 552.00164515 C1.22877269 556.23574706 1.22872399 560.46984897 1.22869301 564.70395088 C1.22867553 566.26787206 1.22867553 566.26787206 1.22865769 567.8633876 C1.22862685 584.67897341 1.23502658 601.49455094 1.24362527 618.31013429 C1.2520811 635.19493761 1.25310802 652.07972876 1.24651595 668.96453302 C1.24280645 679.00882102 1.24469413 689.05307216 1.25445829 699.09735629 C1.26042179 705.79511411 1.25920367 712.49284501 1.25198779 719.19060155 C1.2480753 723.01441802 1.24741852 726.83816278 1.25544515 730.66197442 C1.26399023 734.76844046 1.25728613 738.87473401 1.24888897 742.98120022 C1.25385715 744.18533681 1.25882533 745.38947339 1.26394406 746.63009897 C1.25919325 747.7151339 1.25444244 748.80016883 1.24954766 749.91808361 C1.24963588 750.85842303 1.2497241 751.79876246 1.249815 752.76759702 C1 755 1 755 -1 757 C-5.44078041 757.92833787 -7.98965973 756.62032823 -11.65234375 754.2890625 C-13.42365016 753.08165513 -15.18512124 751.85971764 -16.9375 750.625 C-18.67554861 749.42934925 -20.41383605 748.23404562 -22.15234375 747.0390625 C-23.08449707 746.39275879 -24.01665039 745.74645508 -24.97705078 745.08056641 C-34.45201295 738.55935597 -44.09021952 732.27593472 -53.703125 725.9609375 C-54.64120499 725.34449371 -55.57928497 724.72804993 -56.54579163 724.09292603 C-62.36915295 720.26649953 -62.36915295 720.26649953 -68.1953125 716.44433594 C-95.37929574 698.62070426 -95.37929574 698.62070426 -99 695 C-99.12511465 692.88304176 -99.17819174 690.76183609 -99.20532227 688.64135742 C-99.21521903 687.96193809 -99.2251158 687.28251875 -99.23531246 686.58251095 C-99.26754015 684.25686691 -99.29213838 681.93120874 -99.31640625 679.60546875 C-99.3372289 677.90347027 -99.35827267 676.20147448 -99.3795166 674.4994812 C-99.43675022 669.7394017 -99.48571874 664.97926754 -99.53242874 660.21907425 C-99.56244565 657.19297948 -99.59438968 654.16690993 -99.62667847 651.14083862 C-100.17314348 598.98459023 -100.08428778 546.82512276 -100.05102539 494.66674805 C-100.05027805 493.49148542 -100.05027805 493.49148542 -100.0495156 492.29248011 C-100.03885682 476.19497923 -100.01838313 460.09749568 -100 444 C-133.66 444 -167.32 444 -202 444 C-201.96519531 457.25929688 -201.93039062 470.51859375 -201.89453125 484.1796875 C-201.87921125 492.55599132 -201.86464617 500.93228505 -201.85351562 509.30859375 C-201.83568871 522.6177109 -201.81468951 535.92677124 -201.77368164 549.23583984 C-201.74383497 558.92714673 -201.72443827 568.61840769 -201.71773452 578.30975926 C-201.71381421 583.44406068 -201.70456333 588.57823067 -201.68280983 593.71249008 C-201.66251934 598.54034892 -201.65615105 603.36802161 -201.66067696 608.19591904 C-201.65984841 609.97212738 -201.65383863 611.74834165 -201.64238358 613.52451324 C-201.62755547 615.94128758 -201.6310104 618.35735014 -201.63923645 620.7741394 C-201.63049793 621.48424821 -201.6217594 622.19435701 -201.61275607 622.92598426 C-201.63085651 624.88030815 -201.63085651 624.88030815 -202 628 C-205 630 -205 630 -207.890625 629.83203125 C-211.25193184 628.93258608 -213.03288764 627.83188769 -215.75 625.6875 C-220.28319228 622.25453873 -224.88165402 619.01095529 -229.625 615.875 C-230.71228394 615.15364868 -230.71228394 615.15364868 -231.8215332 614.41772461 C-233.51257348 613.29636285 -235.2041042 612.17574051 -236.89599609 611.05566406 C-242.84488393 607.11594127 -248.7890599 603.16916386 -254.72991943 599.21734619 C-256.88915281 597.78213567 -259.05025472 596.34977085 -261.21142578 594.91748047 C-268.11861514 590.32932087 -274.93066228 585.66376533 -281.60717773 580.7421875 C-285.01997862 578.25736482 -288.52800635 575.93187833 -292.0625 573.625 C-298.73495702 569.26504298 -298.73495702 569.26504298 -301 567 C-301.26105434 564.58186907 -301.26105434 564.58186907 -301.27682209 561.46913815 C-301.29297077 559.69495869 -301.29297077 559.69495869 -301.30944568 557.88493723 C-301.31112331 556.57397957 -301.31280095 555.26302191 -301.31452942 553.91233826 C-301.32327148 552.51458886 -301.33286009 551.11684455 -301.34322661 549.71910626 C-301.36914888 545.86447326 -301.38234333 542.00988426 -301.39338076 538.15518367 C-301.40732781 534.00296022 -301.43258471 529.85080221 -301.45603943 525.69862366 C-301.50988987 515.66302809 -301.54367124 505.62740438 -301.57349184 495.59171233 C-301.58199632 492.75773244 -301.59095315 489.92375432 -301.60004973 487.08977628 C-301.6562605 469.49672951 -301.70500685 451.90367505 -301.73419666 434.31056118 C-301.74107605 430.23365194 -301.74804068 426.15674287 -301.75512695 422.07983398 C-301.75688136 421.06651676 -301.75863578 420.05319953 -301.76044335 419.00917573 C-301.79009932 402.59661845 -301.86442228 386.18457617 -301.95695177 369.77226543 C-302.05114259 352.927063 -302.10383343 336.08212482 -302.11631411 319.23666054 C-302.1243919 309.77642995 -302.15090985 300.31702443 -302.22416115 290.85705376 C-302.28646564 282.79936885 -302.31140058 274.74266682 -302.28754155 266.68475699 C-302.27652643 262.57357029 -302.28327517 258.46445263 -302.33817673 254.35357285 C-302.38807235 250.586414 -302.38678297 246.82279818 -302.3454624 243.05556751 C-302.33660066 241.05395878 -302.38182821 239.05233387 -302.42921859 237.05126661 C-302.32692342 231.74065436 -302.18403379 228.36420235 -298.62222803 224.26041424 C-295.84316413 221.95922992 -293.02750519 219.95825674 -290 218 C-288.47152549 216.86043833 -286.9490801 215.71265935 -285.4375 214.55078125 C-283.96052002 213.46836405 -282.48130426 212.38899178 -281 211.3125 C-279.34369106 210.10034095 -277.6874428 208.88809898 -276.03125 207.67578125 C-275.19722656 207.06686035 -274.36320312 206.45793945 -273.50390625 205.83056641 C-269.49386912 202.89889145 -265.49738775 199.94888582 -261.5 197 C-256.76394313 193.50868539 -252.02678442 190.01890171 -247.28515625 186.53515625 C-238.87165959 180.35065375 -230.48163919 174.13617927 -222.125 167.875 C-221.28654541 167.24730713 -220.44809082 166.61961426 -219.58422852 165.97290039 C-212.38125737 161.27862507 -212.38125737 161.27862507 -207 155 C-202.125 155.875 -202.125 155.875 -201 157 C-200.89565083 159.60006632 -200.86072135 162.17259552 -200.8671875 164.7734375 C-200.86582291 165.63442047 -200.86445831 166.49540344 -200.86305237 167.38247681 C-200.86095473 170.38001831 -200.86755829 173.37746764 -200.875 176.375 C-200.87621857 177.42945313 -200.87743713 178.48390625 -200.87869263 179.5703125 C-200.91188291 204.94161738 -201.16382372 230.31239389 -201.40616608 255.68238068 C-201.43723923 258.97238946 -201.46713126 262.26240717 -201.49676514 265.5524292 C-201.91556496 311.53416403 -201.91556496 311.53416403 -203 334 C-201.86949219 333.99476318 -200.73898437 333.98952637 -199.57421875 333.98413086 C-175.14686339 333.88192607 -150.73579796 334.03217258 -126.3125 334.50390625 C-123.73763395 334.5519992 -121.16276416 334.59989224 -118.58789062 334.64758301 C-112.39188232 334.76276537 -106.19592375 334.88035973 -100 335 C-100.00515373 334.4091628 -100.01030746 333.8183256 -100.01561737 333.20958424 C-100.08456533 325.28166034 -100.1519841 317.3537238 -100.21875 309.42578125 C-100.22718162 308.42699216 -100.22718162 308.42699216 -100.23578358 307.4080255 C-100.38089298 290.19529533 -100.51297552 272.98255466 -100.61816406 255.76953125 C-100.62782105 254.20059902 -100.63748114 252.6316668 -100.64714432 251.0627346 C-100.68630933 244.68536697 -100.72534007 238.30799878 -100.76300812 231.9306221 C-100.87605939 212.89519954 -101.03466556 193.86153385 -101.28440857 174.82739162 C-101.4364367 163.1833221 -101.55185818 151.53925167 -101.63911438 139.89451694 C-101.69722534 132.351445 -101.78880076 124.81025588 -101.92297387 117.26814801 C-102.02210449 111.50576853 -102.06334571 105.7440959 -102.08309174 99.98095131 C-102.10037356 97.63050592 -102.13661635 95.28010982 -102.19345856 92.93028831 C-102.62823283 74.32715187 -102.62823283 74.32715187 -98.63734436 69.68449402 C-95.85409169 67.36603571 -93.1965535 65.6829426 -90 64 C-88.44940406 62.87471371 -86.91311081 61.72900019 -85.40234375 60.55078125 C-83.91571056 59.46908551 -82.42739454 58.38969923 -80.9375 57.3125 C-74.58930047 52.67832694 -68.31423909 47.96950191 -62.125 43.125 C-47.47471917 31.65836591 -32.65924478 20.40111086 -17.73095703 9.29882812 C-16.05690858 8.0427015 -14.40000192 6.76685249 -12.74609375 5.484375 C-11.29396484 4.37835938 -11.29396484 4.37835938 -9.8125 3.25 C-8.58466797 2.29867188 -8.58466797 2.29867188 -7.33203125 1.328125 C-4.63977841 -0.20515132 -3.05076366 -0.35829349 0 0 Z " fill="#000000" transform="translate(740,504)"/>
<path d="M0 0 C4.09969168 0.56955827 6.34784347 2.99223712 9.27734375 5.70703125 C10.52248543 6.81893568 11.7699439 7.92825034 13.01953125 9.03515625 C13.65342773 9.59912109 14.28732422 10.16308594 14.94042969 10.74414062 C17.83984035 13.2634229 20.86132604 15.61230938 23.90234375 17.95703125 C29.0960658 21.98426826 34.15304744 26.14009793 39.15209961 30.40600586 C44.31786518 34.81407319 49.57128696 39.10995492 54.83984375 43.39453125 C60.62705237 48.11896545 66.40259713 52.85698321 72.16503906 57.61157227 C83.6954163 67.41030184 83.6954163 67.41030184 95.83984375 76.39453125 C96.23349804 79.33104241 96.23349804 79.33104241 96.26025295 83.2017231 C96.27374875 84.27464765 96.27374875 84.27464765 96.28751719 85.36924744 C96.31434974 87.80461743 96.31954775 90.23957397 96.32505798 92.67507935 C96.3398765 94.44511884 96.35597429 96.215148 96.37323534 97.98516536 C96.41741681 102.93134956 96.44232504 107.87748113 96.4642746 112.82380733 C96.49154158 118.26110845 96.53583357 123.69827788 96.57742977 129.1354847 C96.67339811 142.19323555 96.74199808 155.25107726 96.80823255 168.30900715 C96.84336229 175.18047669 96.8828784 182.05191947 96.92271243 188.92336309 C97.15785234 229.51961358 97.3471078 270.11603029 97.52401442 310.7125712 C97.57866372 323.24690437 97.63457246 335.78123148 97.69126701 348.31555557 C97.69740246 349.67246359 97.69740246 349.67246359 97.70366186 351.05678388 C97.72028512 354.73277478 97.73691381 358.40876565 97.75355044 362.08475648 C97.90820168 396.2591473 98.05976154 430.43355117 98.20975373 464.60796272 C98.34181638 494.69340532 98.47634099 524.77883592 98.61303711 554.86425781 C98.64810164 562.58218316 98.68316375 570.30010851 98.71820164 578.01803398 C98.72468066 579.44516405 98.72468066 579.44516405 98.73129058 580.90112503 C98.84683552 606.36044379 98.96041581 631.81977132 99.07341522 657.27910149 C99.08563378 660.03158834 99.09785288 662.78407519 99.11007287 665.53656203 C99.11817217 667.3609544 99.12627002 669.18534677 99.13436641 671.00973915 C99.18986651 683.51209678 99.24611428 696.01445084 99.30292755 708.51680257 C99.32652262 713.71499075 99.34998714 718.91317953 99.37342856 724.1113684 C99.39259939 728.36217253 99.41182811 732.61297637 99.43119989 736.86377959 C99.50832669 753.81002767 99.58170936 770.7562606 99.6344619 787.70260421 C99.65321326 793.7247445 99.67262934 799.74688273 99.69198457 805.76902111 C99.69896442 807.9588475 99.70575759 810.14867442 99.71254697 812.33850141 C99.76686333 829.56447395 99.87813752 846.78835349 100.07946044 864.01337469 C100.17049086 871.82664742 100.23730109 879.64005458 100.29599945 887.45363197 C100.34265058 893.37437535 100.42252145 899.29329626 100.53071365 905.21321899 C100.58660253 908.7082622 100.61005179 912.20292011 100.6234103 915.69836053 C100.63621303 917.27724835 100.66279466 918.85609737 100.70456879 920.43448439 C101.00414373 932.06228673 101.00414373 932.06228673 98.10612118 935.37833476 C96.04593465 936.69443922 94.13243448 937.56608387 91.83984375 938.39453125 C90.40523804 939.24712524 90.40523804 939.24712524 88.94165039 940.11694336 C88.05340576 940.6300708 87.16516113 941.14319824 86.25 941.671875 C85.23091553 942.26073486 84.21183105 942.84959473 83.16186523 943.45629883 C82.08622314 944.07529053 81.01058105 944.69428223 79.90234375 945.33203125 C78.76933838 945.98518311 77.63633301 946.63833496 76.46899414 947.3112793 C67.55918353 952.43921281 58.59391142 957.46492896 49.61450195 962.4699707 C43.73286023 965.75466941 37.8861692 969.08658021 32.08984375 972.51953125 C31.43854492 972.90383301 30.78724609 973.28813477 30.11621094 973.68408203 C27.12338189 975.45057039 24.13245615 977.21996165 21.14794922 979.00048828 C18.28128239 980.70626948 15.40517959 982.3951767 12.52734375 984.08203125 C11.17334473 984.89534912 11.17334473 984.89534912 9.79199219 985.72509766 C8.94540039 986.21800293 8.09880859 986.7109082 7.2265625 987.21875 C6.47592529 987.66307373 5.72528809 988.10739746 4.9519043 988.56518555 C2.438298 989.55220677 1.3230191 989.36441038 -1.16015625 988.39453125 C-2.752734 986.8019535 -2.28789884 985.1573454 -2.29076678 982.94862503 C-2.29444749 981.98025454 -2.2981282 981.01188405 -2.30192044 980.01416901 C-2.30089778 978.93546719 -2.29987511 977.85676538 -2.29882145 976.74537563 C-2.30166367 975.60625793 -2.30450589 974.46714022 -2.30743423 973.29350379 C-2.31437004 970.10340717 -2.31677822 966.91334244 -2.31736165 963.72323945 C-2.31908254 960.26338495 -2.32656324 956.80354237 -2.3333382 953.34369475 C-2.34442533 947.27056379 -2.35177868 941.19743702 -2.35673714 935.1242981 C-2.36412692 926.09366382 -2.37720623 917.06304417 -2.39148289 908.03241847 C-2.415332 892.84386609 -2.4345199 877.65531112 -2.45108223 862.46674919 C-2.46750414 847.42082298 -2.48597881 832.37490162 -2.5072155 817.3289814 C-2.50853311 816.39465241 -2.50985071 815.46032342 -2.51120825 814.49768143 C-2.51791002 809.75300008 -2.52464866 805.00831877 -2.53140151 800.26363749 C-2.57920757 766.62750456 -2.6223802 732.99136711 -2.6628418 699.35522461 C-2.70216852 666.67130199 -2.7435854 633.98738312 -2.7878418 601.3034668 C-2.78920433 600.29660464 -2.79056686 599.28974248 -2.79197067 598.25236935 C-2.80565565 588.14135737 -2.81938323 578.03034544 -2.83314202 567.91933356 C-2.86117111 547.32069882 -2.88891581 526.7220637 -2.91648865 506.12342834 C-2.91775685 505.1762661 -2.91902505 504.22910386 -2.92033167 503.25323973 C-3.0050359 439.96700965 -3.0831101 376.68077105 -3.16015625 313.39453125 C-4.93861477 319.54678804 -6.71673259 325.69914322 -8.49462891 331.8515625 C-9.09774312 333.9384985 -9.70093138 336.0254131 -10.30419922 338.11230469 C-14.86534176 353.89068647 -14.86534176 353.89068647 -19.3843689 369.6811676 C-20.49656661 373.57114703 -21.6368129 377.45259498 -22.78515625 381.33203125 C-24.26739684 386.34631984 -25.73062278 391.36493414 -27.16015625 396.39453125 C-27.82015625 396.39453125 -28.48015625 396.39453125 -29.16015625 396.39453125 C-29.65515625 394.90953125 -29.65515625 394.90953125 -30.16015625 393.39453125 C-31.48015625 394.05453125 -32.80015625 394.71453125 -34.16015625 395.39453125 C-33.52631759 390.09996106 -32.37218897 385.17637297 -30.8671875 380.06640625 C-30.64053406 379.28376907 -30.41388062 378.5011319 -30.18035889 377.69477844 C-29.44937094 375.17656894 -28.71126436 372.66051518 -27.97265625 370.14453125 C-27.4678329 368.4120818 -26.96319464 366.6795784 -26.45874023 364.94702148 C-23.75422289 355.68445607 -20.98375048 346.44927022 -18.01464844 337.26757812 C-16.24038162 331.75514154 -14.75410024 326.19374324 -13.30078125 320.58984375 C-11.82047637 315.02892484 -10.14068092 309.52641906 -8.47265625 304.01953125 C-8.16271729 302.98924805 -7.85277832 301.95896484 -7.53344727 300.89746094 C-7.09536743 299.46128418 -7.09536743 299.46128418 -6.6484375 297.99609375 C-6.38587158 297.13322754 -6.12330566 296.27036133 -5.8527832 295.38134766 C-5.16015625 293.39453125 -5.16015625 293.39453125 -4.16015625 292.39453125 C-4.06358005 290.97667419 -4.03643775 289.55402241 -4.03710842 288.13288021 C-4.03511737 287.20778933 -4.03312632 286.28269846 -4.03107494 285.32957453 C-4.03398778 284.30138607 -4.03690062 283.27319761 -4.03990173 282.21385193 C-4.03904731 281.13085613 -4.03819288 280.04786033 -4.03731257 278.93204647 C-4.03565456 275.27295925 -4.04118436 271.61391704 -4.04663086 267.95483398 C-4.04691269 265.34388225 -4.04675508 262.73293044 -4.04618835 260.12197876 C-4.04566293 254.48527491 -4.04881161 248.84858259 -4.05442619 243.21188164 C-4.06253876 235.06206816 -4.06515616 226.91226028 -4.06641418 218.76244319 C-4.06860509 205.54125128 -4.07526621 192.32006552 -4.0847168 179.09887695 C-4.09388992 166.2525231 -4.10097124 153.40617092 -4.10522461 140.55981445 C-4.10548733 139.76852335 -4.10575006 138.97723224 -4.10602074 138.16196262 C-4.10732574 134.19245438 -4.10858946 130.22294613 -4.10983264 126.25343788 C-4.12020645 93.30046452 -4.13782581 60.34749871 -4.16015625 27.39453125 C-4.4025 28.30976563 -4.64484375 29.225 -4.89453125 30.16796875 C-5.39726563 31.95074219 -5.39726563 31.95074219 -5.91015625 33.76953125 C-6.235 34.95289063 -6.55984375 36.13625 -6.89453125 37.35546875 C-8.16015625 40.39453125 -8.16015625 40.39453125 -10.17578125 41.87109375 C-12.16015625 42.39453125 -12.16015625 42.39453125 -14.16015625 41.39453125 C-14.12631009 34.01606832 -12.45253568 27.28406466 -10.34765625 20.26953125 C-9.97519775 19.0180127 -9.97519775 19.0180127 -9.59521484 17.74121094 C-4.35248252 0.79493804 -4.35248252 0.79493804 0 0 Z M-29.16015625 390.39453125 C-28.16015625 392.39453125 -28.16015625 392.39453125 -28.16015625 392.39453125 Z " fill="#234084" transform="translate(1088.16015625,374.60546875)"/>
<path d="M0 0 C1.75421839 2.63132758 2.70406336 4.64629353 3.75244141 7.58129883 C4.08684235 8.51110062 4.42124329 9.4409024 4.76577759 10.39888 C5.12408661 11.40806992 5.48239563 12.41725983 5.8515625 13.45703125 C6.22928802 14.51041183 6.60701355 15.56379242 6.9961853 16.64909363 C8.2096248 20.03553759 9.4174702 23.42394481 10.625 26.8125 C11.41497868 29.02162241 12.20533939 31.23060825 12.99609375 33.43945312 C14.17572527 36.73464514 15.35525976 40.02987046 16.53375244 43.32546997 C21.27394452 56.57590711 26.02803926 69.82178319 31.0078125 82.984375 C34.4160477 92.00586373 37.60117207 101.10561033 40.80203247 110.20227051 C45.79536113 124.38565872 50.79731956 138.56660097 55.95104 152.6926641 C57.61395871 157.25278049 59.26724054 161.8156834 60.88995218 166.39027476 C63.75709228 174.42322301 66.64433011 182.39212033 70.16938689 190.16349123 C84.25749487 221.22688467 85.17932364 251.16009632 84.63893913 284.62765441 C84.51564272 292.48366255 84.49075712 300.33936245 84.46722189 308.19619511 C84.42122318 322.68464444 84.30104929 337.17153498 84.13609314 351.65908051 C83.97341337 365.96878686 83.84524296 380.27814479 83.76148987 394.58853912 C83.75623099 395.48386729 83.75097212 396.37919546 83.74555388 397.30165479 C83.71901318 401.85000705 83.69307292 406.39836253 83.66736346 410.94671956 C83.4849764 443.02339153 83.22773342 475.09905851 82.92529297 507.17480469 C82.63195649 538.30349773 82.37325912 569.43216984 82.16064453 600.56152344 C82.15076465 602.00506506 82.15076465 602.00506506 82.14068518 603.47776913 C82.07456769 613.14366476 82.00914569 622.80956499 81.94423283 632.47546878 C81.8120244 652.15971979 81.67517907 671.84393767 81.53552246 691.52813721 C81.52910935 692.43285327 81.52269625 693.33756934 81.51608881 694.26970104 C81.08851618 754.51376789 80.55291248 814.75696899 80 875 C77.29007749 873.66140354 74.7116975 872.25230825 72.15625 870.63671875 C71.41487793 870.1687085 70.67350586 869.70069824 69.90966797 869.21850586 C69.11447754 868.71327393 68.31928711 868.20804199 67.5 867.6875 C66.66484863 867.15842041 65.82969727 866.62934082 64.96923828 866.08422852 C56.3956969 860.63960594 47.8849875 855.09920431 39.37841797 849.55078125 C35.01446294 846.70504234 35.01446294 846.70504234 30.64052051 843.87470043 C29.25959592 842.97381666 27.88785647 842.0585149 26.53045088 841.1225692 C22.81247054 838.60313956 19.33495658 836.66643686 15.0926199 835.16975212 C9.29461796 832.86585802 4.60554749 830.21859783 1 825 C-2.47605013 813.96639803 -1.39168855 801.59987444 -1.12634858 790.17318732 C-1.03304694 785.22081497 -1.05224936 780.26865029 -1.05744362 775.31557846 C-1.05170769 766.57313746 -0.97660535 757.83342016 -0.85731697 749.09182358 C-0.67967991 735.98602324 -0.61458827 722.8813428 -0.57652726 709.77447577 C-0.52638072 692.76369041 -0.45381902 675.75317778 -0.32785511 658.74278831 C-0.31765638 657.35812614 -0.307461 655.97346394 -0.29726894 654.58880172 C-0.29219216 653.89966163 -0.28711539 653.21052155 -0.28188477 652.50049843 C0.00751478 613.18963675 0.0448503 573.88161865 -0.00527317 534.56983774 C-0.01033773 530.52424112 -0.01494113 526.47864397 -0.01955867 522.43304682 C-0.02706692 515.89204675 -0.03463435 509.35104676 -0.04233658 502.81004691 C-0.04329434 501.99542976 -0.04425209 501.18081261 -0.04523887 500.34151009 C-0.05012092 496.21081573 -0.05512834 492.08012158 -0.06035052 487.94942763 C-0.10701448 451.02006215 -0.102621 414.09076093 -0.08964345 377.16137463 C-0.08786628 372.07000629 -0.08628656 366.97863791 -0.08476377 361.8872695 C-0.08451218 361.04648502 -0.0842606 360.20570054 -0.0840014 359.33943774 C-0.08349404 357.63969084 -0.08298747 355.93994395 -0.08248168 354.24019705 C-0.0791711 343.14387856 -0.07574185 332.04756011 -0.07204473 320.95124173 C-0.0639216 296.42192181 -0.05858116 271.89260223 -0.05493164 247.36328125 C-0.05480011 246.48506202 -0.05466859 245.60684278 -0.05453308 244.70201085 C-0.05321333 235.8739042 -0.0519377 227.04579756 -0.05069422 218.21769091 C-0.04816534 200.27103258 -0.04534413 182.32437431 -0.04234314 164.37771606 C-0.04220585 163.5545135 -0.04206856 162.73131093 -0.04192711 161.88316284 C-0.03289453 107.92210733 -0.01705215 53.96105349 0 0 Z " fill="#FDFDFE" transform="translate(811,473)"/>
<path d="M0 0 C0.33 0 0.66 0 1 0 C1.06866713 33.89505735 1.12152929 67.7900974 1.15319599 101.68520886 C1.15694811 105.68686787 1.16083107 109.68852674 1.16479492 113.69018555 C1.16558185 114.48684352 1.16636878 115.28350149 1.16717956 116.10430061 C1.18023335 129.0035465 1.20388705 141.90275227 1.23145839 154.80197436 C1.25951332 168.03784091 1.27617645 181.27368645 1.28226548 194.50958151 C1.28638174 202.67679291 1.29938249 210.84389094 1.3237494 219.01106744 C1.3414824 225.27375349 1.34336539 231.5363531 1.33932304 237.79906082 C1.34014927 240.36815654 1.34612856 242.93725651 1.35761642 245.50632668 C1.37252381 249.01166491 1.36895954 252.51651654 1.36076355 256.02186584 C1.36950207 257.04035915 1.3782406 258.05885245 1.38724393 259.10820919 C1.35061011 264.89786692 0.63956476 268.84050107 -2 274 C-2.75082383 276.29905545 -3.45533316 278.61350803 -4.125 280.9375 C-4.32891357 281.64076416 -4.53282715 282.34402832 -4.74291992 283.06860352 C-6.20531489 288.14175989 -7.62391775 293.22707928 -9.04296875 298.3125 C-9.7990324 301.0209583 -10.55557512 303.72928226 -11.3125 306.4375 C-11.60217651 307.47449539 -11.60217651 307.47449539 -11.89770508 308.53244019 C-14.81647796 318.9656005 -17.89455694 329.33774455 -21.1159668 339.68212891 C-26.41252649 356.70253421 -31.2642531 373.85616959 -36.14501953 390.99951172 C-37.70131692 396.46121785 -39.26265951 401.92148383 -40.82327271 407.38195801 C-41.70266197 410.45901785 -42.58178858 413.53615273 -43.4609375 416.61328125 C-43.97395833 418.40885417 -44.48697917 420.20442708 -45 422 C-47.24315301 419.75684699 -47.61061476 418.51755971 -48.48950195 415.51416016 C-48.90752075 414.10341469 -48.90752075 414.10341469 -49.33398438 412.66416931 C-49.63240234 411.63288406 -49.93082031 410.60159882 -50.23828125 409.5390625 C-50.71430786 407.92282738 -50.71430786 407.92282738 -51.19995117 406.27394104 C-52.24343876 402.7260168 -53.27790462 399.17552639 -54.3125 395.625 C-55.03019015 393.17990265 -55.74853834 390.73499836 -56.4675293 388.2902832 C-57.93470461 383.29846553 -59.3985364 378.30568745 -60.859375 373.31201172 C-63.71807069 363.54195906 -66.59589771 353.77757753 -69.47860718 344.0145874 C-70.29597809 341.24351305 -71.11074573 338.47168422 -71.92504883 335.69970703 C-72.42523235 334.00160975 -72.92547317 332.30352934 -73.42578125 330.60546875 C-73.64387451 329.86083878 -73.86196777 329.1162088 -74.08666992 328.34901428 C-75.40361345 323.88817903 -76.82216692 319.47111843 -78.30644226 315.06318665 C-79.87347511 310.40159747 -81.31748899 305.70429541 -82.75 301 C-83.07871094 299.97132813 -83.40742187 298.94265625 -83.74609375 297.8828125 C-87.11870874 286.69768431 -84.98077014 279.10699849 -81.3125 268.25 C-78.70481551 260.32855434 -76.18467349 252.40656452 -73.9375 244.375 C-71.0662958 234.14657851 -67.98571432 223.98854372 -64.86914062 213.83251953 C-58.65395922 193.57731316 -52.57533473 173.2812402 -46.49389648 152.9855957 C-46.12770706 151.76351913 -46.12770706 151.76351913 -45.75411987 150.51675415 C-45.24003661 148.80108369 -44.72597925 147.08540548 -44.21194458 145.36972046 C-41.34559077 135.80383901 -38.47758125 126.2386726 -35.5625 116.6875 C-35.2744751 115.74221436 -34.9864502 114.79692871 -34.68969727 113.82299805 C-33.4952638 109.9029639 -32.29984147 105.98323153 -31.10449219 102.06347656 C-30.21513905 99.14659266 -29.32624295 96.22956987 -28.4375 93.3125 C-28.14770264 92.36205811 -27.85790527 91.41161621 -27.55932617 90.43237305 C-26.16027175 85.83772878 -24.7704062 81.24069363 -23.40234375 76.63671875 C-21.22780351 69.32122937 -19.04421169 62.03129002 -16.5625 54.8125 C-13.97873452 47.20153586 -11.87338518 39.47601536 -9.7421875 31.72802734 C-6.78530215 21.05773858 -3.44584613 10.52114801 0 0 Z " fill="#FDFDFE" transform="translate(1084,400)"/>
<path d="M0 0 C0.69440186 0.28423828 1.38880371 0.56847656 2.10424805 0.86132812 C2.42625049 15.0723695 2.61947018 28.90919112 -0.45141602 42.84375 C-0.88860888 44.82889387 -1.27989556 46.81944575 -1.66918945 48.81445312 C-7.42247393 76.34802883 -23.84554303 99.85012944 -42.89575195 119.86132812 C-43.59958008 120.62960937 -44.3034082 121.39789062 -45.02856445 122.18945312 C-62.85868488 141.03650057 -87.73911527 154.14152177 -111.89575195 162.86132812 C-113.18746402 163.35600126 -114.47912768 163.85080079 -115.77075195 164.34570312 C-126.97605701 168.54371337 -138.55587917 171.16182978 -150.33325195 173.17382812 C-151.31487305 173.34519287 -152.29649414 173.51655762 -153.30786133 173.69311523 C-170.66576926 176.50368006 -170.66576926 176.50368006 -176.89575195 172.86132812 C-176.80801476 169.0008915 -175.48810083 167.18289557 -172.81762695 164.61132812 C-171.4357788 163.3516323 -170.04440759 162.1023359 -168.64575195 160.86132812 C-160.58923962 153.51514687 -152.85870388 145.89711269 -145.20532227 138.1328125 C-141.57947705 134.47200927 -137.97157203 130.86015634 -134.0480957 127.51757812 C-130.50916752 124.48440158 -127.21115003 121.23914815 -123.93481445 117.92773438 C-123.41321243 117.40062363 -122.89161041 116.87351288 -122.35420227 116.33042908 C-120.18589537 114.13437044 -118.0214337 111.9346001 -115.86108398 109.73071289 C-114.26496297 108.10457894 -112.66282872 106.48456918 -111.05981445 104.86523438 C-110.57026276 104.36222305 -110.08071106 103.85921173 -109.57632446 103.34095764 C-108.38691658 102.1427082 -107.14550799 100.99649449 -105.89575195 99.86132812 C-105.23575195 99.86132812 -104.57575195 99.86132812 -103.89575195 99.86132812 C-103.89575195 99.20132812 -103.89575195 98.54132813 -103.89575195 97.86132812 C-102.58081055 96.57202148 -102.58081055 96.57202148 -100.66918945 95.01367188 C-96.90489965 91.8142744 -93.40097196 88.44128526 -89.93481445 84.92773438 C-89.41401306 84.40126312 -88.89321167 83.87479187 -88.35662842 83.33236694 C-86.18724585 81.13592407 -84.02215402 78.93533494 -81.86108398 76.73071289 C-80.26496297 75.10457894 -78.66282872 73.48456918 -77.05981445 71.86523438 C-76.57026276 71.36222305 -76.08071106 70.85921173 -75.57632446 70.34095764 C-74.38691658 69.1427082 -73.14550799 67.99649449 -71.89575195 66.86132812 C-71.23575195 66.86132812 -70.57575195 66.86132812 -69.89575195 66.86132812 C-69.89575195 66.20132812 -69.89575195 65.54132813 -69.89575195 64.86132812 C-68.55004883 63.5390625 -68.55004883 63.5390625 -66.61450195 61.95507812 C-63.03966993 58.91521216 -59.66737051 55.72290987 -56.36450195 52.39257812 C-55.88005615 51.9048291 -55.39561035 51.41708008 -54.89648438 50.91455078 C-53.39424673 49.39876615 -51.89456095 47.88050269 -50.39575195 46.36132812 C-39.35176029 35.16727252 -39.35176029 35.16727252 -35.0637207 31.54882812 C-31.20153055 28.25451966 -27.69809219 24.6561229 -24.1652832 21.01757812 C-23.26040665 20.09023865 -23.26040665 20.09023865 -22.33724976 19.14416504 C-19.81512499 16.5588823 -17.29404025 13.97322294 -14.79638672 11.36425781 C-12.95379506 9.44324288 -11.09289 7.54170607 -9.2277832 5.64257812 C-8.66622025 5.0469104 -8.10465729 4.45124268 -7.52607727 3.83752441 C-3.54614891 -0.16981811 -3.54614891 -0.16981811 0 0 Z " fill="#010101" transform="translate(1178.895751953125,1373.138671875)"/>
<path d="M0 0 C5.52392802 0.26976114 8.17042254 3.64006527 11.8046875 7.37890625 C12.4468924 8.02439926 13.08909729 8.66989227 13.75076294 9.33494568 C15.801699 11.40161507 17.83809745 13.48200802 19.875 15.5625 C21.23741247 16.93640893 22.60068523 18.30946534 23.96484375 19.68164062 C25.28722832 21.01746737 26.60886653 22.35403345 27.9296875 23.69140625 C28.53408661 24.30319229 29.13848572 24.91497833 29.76119995 25.54530334 C32.68563012 28.53401197 35.51165761 31.56506024 38.23095703 34.74194336 C42.51165801 39.68134241 47.14831726 44.26084842 51.78594971 48.8611145 C53.41233269 50.47453514 55.03539696 52.09123271 56.65771484 53.70874023 C60.10231484 57.14200746 63.55084781 60.57130684 67 64 C71.00232205 67.97858183 75.00293815 71.9588492 78.99932861 75.94338989 C80.58521006 77.52287066 82.17411096 79.09926797 83.76318359 80.67553711 C88.4062263 85.29529366 92.90572015 89.96552798 97.16601562 94.94116211 C100.7426007 98.95625023 104.59864811 102.70592341 108.41555786 106.49072266 C109.97473727 108.0369274 111.53058621 109.58641896 113.08569336 111.13671875 C116.38763136 114.42732983 119.69350416 117.71396962 123 121 C126.83711476 124.81336505 130.67251675 128.62842149 134.50369263 132.44775391 C136.02309466 133.96076052 137.54551703 135.4706797 139.06811523 136.98046875 C143.72012486 141.60829941 148.22572463 146.29694259 152.49536133 151.28164673 C154.63769415 153.72827042 156.95453613 155.96179191 159.3125 158.19921875 C160.24191406 159.09833984 161.17132812 159.99746094 162.12890625 160.92382812 C163.57695786 162.31770093 165.02531195 163.71136234 166.48779297 165.09008789 C167.92192894 166.44576121 169.33632419 167.82222317 170.75 169.19921875 C172.01070312 170.40324341 172.01070312 170.40324341 173.296875 171.6315918 C175 174 175 174 174.890625 176.67504883 C174 179 174 179 172 181 C133.27921343 184.81596158 95.03187691 164.71912809 65.9375 141.1875 C64.28601711 139.79835554 62.63965394 138.40308696 61 137 C60.27425781 136.39671875 59.54851563 135.7934375 58.80078125 135.171875 C54.76898373 131.76212624 51.2299386 128.16219694 47.82421875 124.12890625 C46.59080028 122.68947784 45.32086433 121.28067879 44.01953125 119.90234375 C27.58228017 102.44712083 16.18736137 81.97121838 7 60 C6.58878906 59.04996094 6.17757812 58.09992188 5.75390625 57.12109375 C0.03623753 42.90478904 -2.17387466 26.38537567 -2.1875 11.125 C-2.19974609 10.37992188 -2.21199219 9.63484375 -2.22460938 8.8671875 C-2.23494335 5.03672901 -2.17523137 3.26284706 0 0 Z " fill="#010101" transform="translate(816,1369)"/>
<path d="M0 0 C5.89971427 2.00901745 9.72893522 7.1909985 13.64677429 11.78907776 C15.3398567 13.72297058 17.09666382 15.52982522 18.93193054 17.32814026 C22.00371963 20.35193265 24.86072759 23.50740187 27.65458679 26.78907776 C28.87150002 28.1851848 30.13246423 29.54375393 31.42802429 30.86720276 C34.50527488 34.07447801 36.24773034 36.06502514 37.30693054 40.45314026 C36.04482647 45.32125598 33.68721916 47.29400969 29.43193054 49.82814026 C13.14627141 57.12300041 -7.63403875 57.21352105 -24.56806946 51.82814026 C-36.82128553 46.78350912 -36.82128553 46.78350912 -39.56806946 42.82814026 C-40.13618469 40.26734924 -40.13618469 40.26734924 -39.56806946 36.82814026 C-37.26431502 33.59676589 -34.47231177 30.89231841 -31.65010071 28.11329651 C-30.84070541 27.29816086 -30.03131012 26.48302521 -29.1973877 25.64318848 C-27.48383953 23.92555992 -25.76270109 22.21547509 -24.03462219 20.51246643 C-21.3867541 17.8967498 -18.77242842 15.2505525 -16.15986633 12.59962463 C-14.49186527 10.93558764 -12.82200435 9.27341242 -11.15010071 7.61329651 C-10.3665773 6.81762772 -9.58305389 6.02195892 -8.77578735 5.20217896 C-7.6652021 4.11996315 -7.6652021 4.11996315 -6.53218079 3.0158844 C-5.88598282 2.37445999 -5.23978485 1.73303558 -4.57400513 1.07217407 C-2.56806946 -0.17185974 -2.56806946 -0.17185974 0 0 Z " fill="#254183" transform="translate(998.5680694580078,1551.171859741211)"/>
<path d="M0 0 C0.75929472 2.98613386 1.4118332 5.97514219 2 9 C2.99 8.67 3.98 8.34 5 8 C3.53906163 14.95924829 1.70288715 21.744755 -0.3125 28.5625 C-0.62445312 29.62460693 -0.93640625 30.68671387 -1.2578125 31.78100586 C-3.33252122 38.81676576 -5.47722602 45.82595865 -7.6875 52.8203125 C-11.63610984 65.33863964 -15.40895942 77.9142446 -19.08813477 90.51416016 C-21.08565751 97.33532443 -23.15874031 104.13313905 -25.23828125 110.9296875 C-27.10632354 117.04085443 -28.94852225 123.15942558 -30.78125 129.28125 C-32.99299925 136.66590527 -35.22470791 144.04425296 -37.47265625 151.41796875 C-37.76663803 152.38233353 -38.06061981 153.3466983 -38.36351013 154.34028625 C-39.56533909 158.28133667 -40.76777027 162.22220271 -41.97094727 166.1628418 C-45.7134369 178.42299985 -49.41412123 190.69304978 -53 203 C-53.66 203 -54.32 203 -55 203 C-55 202.01 -55 201.02 -55 200 C-58.11332248 200.66868314 -58.11332248 200.66868314 -59.1875 203.0625 C-59.455625 203.701875 -59.72375 204.34125 -60 205 C-60.30716805 199.29183275 -59.28313574 194.92446867 -57.44140625 189.546875 C-56.88488965 187.85547178 -56.33046061 186.16338065 -55.77783203 184.47070312 C-55.48579895 183.5810083 -55.19376587 182.69131348 -54.8928833 181.7746582 C-53.35764813 177.00387477 -51.94470164 172.1974929 -50.52734375 167.390625 C-50.23364899 166.39897339 -49.93995422 165.40732178 -49.63735962 164.38562012 C-48.43189825 160.3140254 -47.22978204 156.24144958 -46.02905273 152.16845703 C-42.86039665 141.42866822 -39.64350234 130.72958726 -36.04370117 120.12597656 C-34.62241287 115.86909341 -33.38349288 111.57456556 -32.1875 107.25 C-29.79002001 98.73168701 -27.32299873 90.23570506 -24.8125 81.75 C-24.47951904 80.61981445 -24.14653809 79.48962891 -23.8034668 78.32519531 C-23.3226062 76.70242676 -23.3226062 76.70242676 -22.83203125 75.046875 C-22.41014526 73.62133301 -22.41014526 73.62133301 -21.97973633 72.16699219 C-21.21458715 69.69365176 -20.41431502 67.24342014 -19.58642578 64.79101562 C-17.86630507 59.6609544 -16.31929249 54.48509835 -14.78515625 49.296875 C-14.48814316 48.29722717 -14.19113007 47.29757935 -13.88511658 46.26763916 C-12.94283667 43.09550861 -12.00254242 39.92279426 -11.0625 36.75 C-9.82506953 32.57787212 -8.58674258 28.4060114 -7.34765625 24.234375 C-7.05339752 23.24344849 -6.75913879 22.25252197 -6.45596313 21.23156738 C-4.34719506 14.14075353 -2.20326276 7.06211374 0 0 Z " fill="#2E4883" transform="translate(1074,408)"/>
<path d="M0 0 C1 1 1 1 1.5625 3.5625 C0.67741723 8.97133915 -3.00528223 11.48328264 -7 15 C-7.68191406 15.61230469 -8.36382813 16.22460938 -9.06640625 16.85546875 C-10.38566364 18.02498655 -11.71763753 19.18033142 -13.0625 20.3203125 C-14.35176644 21.43802333 -15.60335526 22.60075459 -16.8125 23.8046875 C-19.78083773 26.68026467 -21.23153406 27.91616735 -25.4375 28.375 C-29.72951811 26.71843161 -31.87251618 24.53079639 -34.953125 21.1875 C-36.92705345 19.07795815 -38.97944942 17.23441102 -41.1875 15.375 C-44.55740281 12.44464973 -47.49501162 9.71707953 -50 6 C-50.125 3.375 -50.125 3.375 -49 1 C-37.41385747 -10.93723776 -12.33786973 -10.00367816 0 0 Z " fill="#274283" transform="translate(1022,1513)"/>
<path d="M0 0 C0.33 0 0.66 0 1 0 C1 71.94 1 143.88 1 218 C2.65 218.66 4.3 219.32 6 220 C7.89275722 221.10933518 9.75977838 222.26322486 11.60546875 223.44921875 C12.67216797 224.13306641 13.73886719 224.81691406 14.83789062 225.52148438 C16.49594727 226.59366211 16.49594727 226.59366211 18.1875 227.6875 C19.27353516 228.38294922 20.35957031 229.07839844 21.47851562 229.79492188 C26.62381991 233.10460409 31.74166505 236.45433224 36.80078125 239.89453125 C38.01954956 240.72174683 38.01954956 240.72174683 39.26293945 241.56567383 C39.83616943 242.03900146 40.40939941 242.5123291 41 243 C41 243.66 41 244.32 41 245 C40.34 245 39.68 245 39 245 C39 246.65 39 248.3 39 250 C23.78920872 241.59317557 9.43402308 231.65632779 -5 222 C-4.505 220.02 -4.505 220.02 -4 218 C-3.67 218.66 -3.34 219.32 -3 220 C-0.397001 217.397001 -0.75034669 215.58244886 -0.71566427 212.03609836 C-0.717599 211.19369732 -0.71953374 210.35129627 -0.7215271 209.48336792 C-0.7157347 208.59144466 -0.7099423 207.69952139 -0.70397437 206.78057015 C-0.68688849 203.7740876 -0.68409051 200.76775775 -0.68115234 197.76123047 C-0.67186009 195.61317566 -0.66169248 193.46512448 -0.65071106 191.31707764 C-0.62331777 185.47028283 -0.6082341 179.62351223 -0.59528303 173.77666998 C-0.57969317 167.67205864 -0.55288984 161.56749706 -0.5272522 155.46292114 C-0.48039079 143.89615148 -0.44368238 132.32937252 -0.41057932 120.7625562 C-0.37240984 107.59707059 -0.32298621 94.43163486 -0.27259517 81.26619124 C-0.16916585 54.17749776 -0.07994133 27.08877226 0 0 Z " fill="#435A90" transform="translate(811,1080)"/>
<path d="M0 0 C0.33 0 0.66 0 1 0 C1 118.47 1 236.94 1 359 C0.67 359 0.34 359 0 359 C-0.33 244.16 -0.66 129.32 -1 11 C-1.99 11.495 -1.99 11.495 -3 12 C-2.01 8.04 -1.02 4.08 0 0 Z " fill="#C9D3E8" transform="translate(1085,685)"/>
<path d="M0 0 C2.45878601 1.04142761 2.45878601 1.04142761 5 3 C5.52388595 5.64989272 5.6918088 7.67936412 5.65942383 10.3371582 C5.6699047 11.09363081 5.68038557 11.85010342 5.69118404 12.62949944 C5.72034072 15.18699198 5.71354297 17.74314799 5.70703125 20.30078125 C5.7202888 22.15018785 5.73566721 23.99958026 5.75299072 25.84895325 C5.79400248 30.934949 5.80329997 36.02058576 5.80708694 41.1067276 C5.81616529 46.48319501 5.85347563 51.85947625 5.88647461 57.23583984 C5.96039963 70.48780172 5.9817705 83.73967184 5.99551392 96.99181366 C5.9999202 101.11826274 6.00606664 105.24470836 6.01245117 109.37115479 C6.07241159 148.5808624 6.06465295 187.79029433 6 227 C5.67 227 5.34 227 5 227 C3.82034578 183.1813267 3.87649187 139.37044832 3.92797339 95.53965616 C3.93939078 85.63789835 3.94470883 75.73613963 3.94967639 65.83437681 C3.95997806 45.55624385 3.97743033 25.27812279 4 5 C3.34 5 2.68 5 2 5 C1.34 3.35 0.68 1.7 0 0 Z " fill="#3B4F80" transform="translate(1179,448)"/>
<path d="M0 0 C0.66 0 1.32 0 2 0 C1.67 0.99 1.34 1.98 1 3 C0.8965747 5.09248509 0.85356077 7.18812041 0.84178162 9.28312683 C0.82709839 11.25822487 0.82709839 11.25822487 0.81211853 13.27322388 C0.80621429 14.73577845 0.80040385 16.1983334 0.79467773 17.66088867 C0.78509938 19.19826013 0.77508933 20.73562895 0.76467896 22.272995 C0.73761915 26.45035322 0.7166154 30.62772276 0.69667697 34.80512023 C0.67482407 39.16936163 0.64743197 43.53356812 0.62062073 47.89778137 C0.57068444 56.16374914 0.52574907 64.42973628 0.48259836 72.69574195 C0.433234 82.10557087 0.3783129 91.51536476 0.32291877 100.92515981 C0.20908435 120.28340737 0.10224847 139.64168796 0 159 C-0.33 159 -0.66 159 -1 159 C-1.02332721 138.41663162 -1.0409783 117.83326541 -1.05181217 97.24988651 C-1.05697551 87.69336061 -1.06401892 78.13684291 -1.07543945 68.58032227 C-1.08538514 60.25397993 -1.09185315 51.92764352 -1.09408849 43.60129541 C-1.0953958 39.18975143 -1.09848288 34.77822443 -1.10573006 30.36668587 C-1.11248846 26.21929613 -1.11461733 22.07193047 -1.11310768 17.92453575 C-1.11338409 16.3978627 -1.11539028 14.87118888 -1.11920547 13.34452057 C-1.12413994 11.26916541 -1.12299923 9.19390258 -1.12025452 7.11854553 C-1.12117631 5.95432099 -1.1220981 4.79009645 -1.12304783 3.59059238 C-1 1 -1 1 0 0 Z " fill="#45598A" transform="translate(805,449)"/>
<path d="M0 0 C0.66 0.66 1.32 1.32 2 2 C-2.29 6.29 -6.58 10.58 -11 15 C-11.99 14.34 -12.98 13.68 -14 13 C-9.38 8.71 -4.76 4.42 0 0 Z " fill="#DADEE7" transform="translate(1022,1520)"/>
<path d="M0 0 C0.33 0.66 0.66 1.32 1 2 C-4.91684902 10.50765864 -4.91684902 10.50765864 -9.4375 12.5625 C-10.283125 12.706875 -11.12875 12.85125 -12 13 C-8.19524578 8.43969176 -4.25030379 4.14910608 0 0 Z " fill="#374D84" transform="translate(976,1571)"/>
<path d="M0 0 C0.33 0 0.66 0 1 0 C1.31677048 5.91304888 0.84641718 10.71714343 -2 16 C-3.60546875 17.73046875 -3.60546875 17.73046875 -5 19 C-4.35561067 16.39546825 -3.7095496 13.7913709 -3.0625 11.1875 C-2.88009766 10.44951172 -2.69769531 9.71152344 -2.50976562 8.95117188 C-1.7577385 5.92939016 -0.98514427 2.95543282 0 0 Z " fill="#495D8E" transform="translate(1048,787)"/>
<path d="M0 0 C0.33 0 0.66 0 1 0 C0.6143354 7.11484687 -0.39099399 13.35441866 -3 20 C-3.66 19.67 -4.32 19.34 -5 19 C-4.35561067 16.39546825 -3.7095496 13.7913709 -3.0625 11.1875 C-2.88009766 10.44951172 -2.69769531 9.71152344 -2.50976562 8.95117188 C-1.7577385 5.92939016 -0.98514427 2.95543282 0 0 Z " fill="#485B8C" transform="translate(1063,736)"/>
<path d="M0 0 C2.46948242 1.16723633 2.46948242 1.16723633 5 3 C5.56762695 5.4519043 5.56762695 5.4519043 5.48828125 8.32421875 C5.47216797 9.35224609 5.45605469 10.38027344 5.43945312 11.43945312 C5.39755859 12.51130859 5.35566406 13.58316406 5.3125 14.6875 C5.28994141 15.77095703 5.26738281 16.85441406 5.24414062 17.97070312 C5.1851579 20.64851905 5.10290307 23.32357027 5 26 C4.67 26 4.34 26 4 26 C4 19.07 4 12.14 4 5 C3.34 5 2.68 5 2 5 C1.34 3.35 0.68 1.7 0 0 Z " fill="#31467B" transform="translate(1179,448)"/>
<path d="M0 0 C0.99 0.33 1.98 0.66 3 1 C0.69 3.31 -1.62 5.62 -4 8 C-4.99 7.34 -5.98 6.68 -7 6 C-5.90716423 4.96704564 -4.80029421 3.94892165 -3.6875 2.9375 C-3.07261719 2.36902344 -2.45773437 1.80054688 -1.82421875 1.21484375 C-0.92123047 0.61349609 -0.92123047 0.61349609 0 0 Z " fill="#E8EEF6" transform="translate(1007,1534)"/>
<path d="M0 0 C0.99 0.33 1.98 0.66 3 1 C1.35 2.98 -0.3 4.96 -2 7 C-2.99 6.34 -3.98 5.68 -5 5 C-3.35 3.35 -1.7 1.7 0 0 Z " fill="#CBD1DA" transform="translate(1013,1528)"/>
<path d="M0 0 C0.66 0 1.32 0 2 0 C2.99 4.29 3.98 8.58 5 13 C4.34 13 3.68 13 3 13 C2.690625 11.865625 2.38125 10.73125 2.0625 9.5625 C1.37075469 6.21224901 1.37075469 6.21224901 0 5 C-0.04063832 3.33382885 -0.042721 1.66611905 0 0 Z " fill="#495D8E" transform="translate(1007,722)"/>
<path d="M0 0 C0.33 0 0.66 0 1 0 C1 3.3 1 6.6 1 10 C-0.32 10.33 -1.64 10.66 -3 11 C-2.01 7.37 -1.02 3.74 0 0 Z " fill="#DBE7F3" transform="translate(1084,400)"/>
<path d="M0 0 C0 3 0 3 -1.53125 4.60546875 C-2.1809375 5.12753906 -2.830625 5.64960938 -3.5 6.1875 C-4.1496875 6.71730469 -4.799375 7.24710937 -5.46875 7.79296875 C-5.9740625 8.19128906 -6.479375 8.58960938 -7 9 C-7.66 8.34 -8.32 7.68 -9 7 C-6.03 4.69 -3.06 2.38 0 0 Z " fill="#3C5286" transform="translate(822,436)"/>
<path d="M0 0 C0.66 0 1.32 0 2 0 C2.20140476 3.62528568 1.85776765 5.86501708 0 9 C-0.66 9 -1.32 9 -2 9 C-1.34 6.03 -0.68 3.06 0 0 Z " fill="#465C8C" transform="translate(1049,490)"/>
<path d="M0 0 C1.88391785 3.26545761 2.49287967 6.28111761 3 10 C2.34 10 1.68 10 1 10 C-0.60725635 6.78548731 -0.05748185 3.56387464 0 0 Z " fill="#4D6090" transform="translate(1034,809)"/>
</svg>
